<mxfile host="app.diagrams.net" modified="2023-05-02T05:59:13.121Z" agent="Mozilla/5.0 (Windows NT 10.0; Win64; x64) AppleWebKit/537.36 (KHTML, like Gecko) Chrome/112.0.0.0 Safari/537.36" version="21.2.3" etag="pCaAYmiHnj8s5Bx8CNOI" type="github">
  <diagram name="Page-1" id="tTEwZJq2sQbX6vDHOfK6">
    <mxGraphModel>
      <root>
        <mxCell id="0" />
        <mxCell id="1" parent="0" />
      </root>
    </mxGraphModel>
  </diagram>
</mxfile>
